<svg xmlns="http://www.w3.org/2000/svg" xmlns:xlink="http://www.w3.org/1999/xlink" viewBox="0 0 471 168.82"><defs><style>.cls-1{fill:url(#linear-gradient);}.cls-2{fill:url(#linear-gradient-2);}</style><linearGradient id="linear-gradient" y1="13.01" x2="471" y2="13.01" gradientUnits="userSpaceOnUse"><stop offset="0" stop-color="#0071bc" stop-opacity="0"/><stop offset="0.02" stop-color="#0071bc" stop-opacity="0.1"/><stop offset="0.06" stop-color="#0071bc" stop-opacity="0.34"/><stop offset="0.1" stop-color="#0071bc" stop-opacity="0.54"/><stop offset="0.14" stop-color="#0071bc" stop-opacity="0.71"/><stop offset="0.19" stop-color="#0071bc" stop-opacity="0.84"/><stop offset="0.24" stop-color="#0071bc" stop-opacity="0.93"/><stop offset="0.29" stop-color="#0071bc" stop-opacity="0.98"/><stop offset="0.35" stop-color="#0071bc"/><stop offset="0.44" stop-color="#0172bd" stop-opacity="0.98"/><stop offset="0.53" stop-color="#0476c0" stop-opacity="0.91"/><stop offset="0.63" stop-color="#097dc4" stop-opacity="0.79"/><stop offset="0.73" stop-color="#0f87ca" stop-opacity="0.63"/><stop offset="0.84" stop-color="#1893d2" stop-opacity="0.42"/><stop offset="0.94" stop-color="#22a1dc" stop-opacity="0.17"/><stop offset="1" stop-color="#29abe2" stop-opacity="0"/></linearGradient><linearGradient id="linear-gradient-2" x1="228" y1="25.7" x2="228" y2="168.82" gradientUnits="userSpaceOnUse"><stop offset="0.35" stop-color="#0071bc"/><stop offset="0.44" stop-color="#0172bd" stop-opacity="0.98"/><stop offset="0.53" stop-color="#0476c0" stop-opacity="0.91"/><stop offset="0.63" stop-color="#097dc4" stop-opacity="0.79"/><stop offset="0.73" stop-color="#0f87ca" stop-opacity="0.63"/><stop offset="0.84" stop-color="#1893d2" stop-opacity="0.42"/><stop offset="0.94" stop-color="#22a1dc" stop-opacity="0.17"/><stop offset="1" stop-color="#29abe2" stop-opacity="0"/></linearGradient></defs><g id="Layer_1" data-name="Layer 1"><path class="cls-1" d="M471,0H0V26H471ZM167,23.32A1.68,1.68,0,0,1,165.31,25H115.69A1.68,1.68,0,0,1,114,23.32V2.7A1.68,1.68,0,0,1,115.69,1h49.62A1.68,1.68,0,0,1,167,2.7ZM1,1H113.6A2.65,2.65,0,0,0,113,2.7V23.32A2.63,2.63,0,0,0,113.6,25H1ZM470,25H167.4a2.63,2.63,0,0,0,.61-1.69V2.7A2.65,2.65,0,0,0,167.4,1H470ZM134.59,7.62h1.18v9.31h-1.26l-4.89-7.31v7.31h-1.18V7.62h1.26l4.89,7.31ZM140.46,10a3,3,0,0,0-2.27.94,3.76,3.76,0,0,0-.88,2.64,3.56,3.56,0,0,0,.87,2.56,3.08,3.08,0,0,0,2.35.91,3.14,3.14,0,0,0,1.93-.57,2.87,2.87,0,0,0,1-1.61l-1.18-.14a2.2,2.2,0,0,1-.7,1.05,1.78,1.78,0,0,1-1.08.33,1.89,1.89,0,0,1-1.41-.59,2.6,2.6,0,0,1-.62-1.7h5c0-.14,0-.24,0-.31a3.68,3.68,0,0,0-.86-2.59A2.9,2.9,0,0,0,140.46,10Zm-1.9,2.88a2.08,2.08,0,0,1,.59-1.41,1.83,1.83,0,0,1,1.33-.53,1.73,1.73,0,0,1,1.41.66,2.28,2.28,0,0,1,.43,1.28Zm13.68-2.72h1.12l-2.11,6.74h-1.19l-1.07-4-.26-1.15-1.37,5.19h-1.19l-2.06-6.74h1.18l1.07,3.89.4,1.44c0-.07.13-.53.35-1.39l1.07-3.94h1.18l1,3.91.33,1.29.39-1.31ZM60.54,7.62h2.82v9.31H61.61V9.6l-1.84,7.33H58L56.12,9.6v7.33H54.37V7.62h2.81L58.87,14Zm4.67,2.57H67v6.74H65.21Zm0-2.57H67V9.27H65.21Zm13.21,3.6a3.88,3.88,0,0,1,.19,1.4v4.31H76.82V13.07a2.91,2.91,0,0,0-.18-1.29.86.86,0,0,0-.76-.38,1.25,1.25,0,0,0-.71.23,1.19,1.19,0,0,0-.47.67,4.67,4.67,0,0,0-.15,1.39v3.24H72.77v-3.7a5.26,5.26,0,0,0-.1-1.27.78.78,0,0,0-.29-.42,1,1,0,0,0-.55-.14,1.29,1.29,0,0,0-.74.22,1.19,1.19,0,0,0-.47.64,4.61,4.61,0,0,0-.14,1.39v3.28H68.69V10.19h1.65v.92A2.62,2.62,0,0,1,72.44,10a2.24,2.24,0,0,1,1.12.27,2,2,0,0,1,.78.81,3.24,3.24,0,0,1,1-.81,2.53,2.53,0,0,1,2.35,0A1.8,1.8,0,0,1,78.42,11.22Zm2-1h1.79v6.74H80.38Zm0-2.57h1.79V9.27H80.38Zm7.83,6.72,1.75.3a3.1,3.1,0,0,1-1,1.82,3.2,3.2,0,0,1-2.08.62,3.1,3.1,0,0,1-2.36-.93,3.68,3.68,0,0,1-.88-2.59,3.67,3.67,0,0,1,.88-2.6A3.15,3.15,0,0,1,86.87,10a3.3,3.3,0,0,1,2,.53,3,3,0,0,1,1,1.62l-1.75.32a1.31,1.31,0,0,0-.41-.8,1.25,1.25,0,0,0-.81-.26,1.34,1.34,0,0,0-1.07.46,2.38,2.38,0,0,0-.39,1.54,2.7,2.7,0,0,0,.4,1.69,1.33,1.33,0,0,0,1.08.5,1.2,1.2,0,0,0,.83-.29A1.73,1.73,0,0,0,88.21,14.34Zm94.21,2.59h-6.94V7.62h6.73v1.1h-5.5v2.85h5.15v1.09h-5.15v3.17h5.71Zm2.56-.29a2.73,2.73,0,0,0,1.49.44,2.09,2.09,0,0,0,1.88-1v.85h1.06V7.62h-1.13V11a2.32,2.32,0,0,0-.78-.67,2.27,2.27,0,0,0-1.08-.26,2.72,2.72,0,0,0-1.51.44,2.66,2.66,0,0,0-1,1.26,4.89,4.89,0,0,0-.33,1.83,4.24,4.24,0,0,0,.37,1.83A2.92,2.92,0,0,0,185,16.64Zm.27-5a1.6,1.6,0,0,1,1.27-.62,1.67,1.67,0,0,1,1.32.65,3.2,3.2,0,0,1,.53,2,2.82,2.82,0,0,1-.52,1.87,1.62,1.62,0,0,1-2.56,0,2.9,2.9,0,0,1-.55-1.94A3.09,3.09,0,0,1,185.25,11.6Zm7.11,5.33h-1.15V10.19h1.15Zm0-8h-1.15V7.62h1.15Zm1.95,2.14h-.84v-.89h.84V8.52l1.13-.69v2.36h1.15v.89h-1.15V15a2.07,2.07,0,0,0,.06.63.53.53,0,0,0,.2.22.81.81,0,0,0,.39.08,3.52,3.52,0,0,0,.5,0l.17,1a4.94,4.94,0,0,1-.87.1,2,2,0,0,1-1-.2,1,1,0,0,1-.48-.52,3.88,3.88,0,0,1-.14-1.35Zm26.8,5.85-3.6-9.31h1.33l2.42,6.76c.19.54.36,1,.49,1.53.14-.51.31-1,.5-1.53l2.51-6.76H226l-3.64,9.31Zm6.78,0h-1.14V10.19h1.14Zm0-8h-1.14V7.62h1.14Zm4.57,8.14a3.1,3.1,0,0,0,1.93-.57,2.88,2.88,0,0,0,1-1.61l-1.18-.14a2.22,2.22,0,0,1-.71,1.05,1.73,1.73,0,0,1-1.07.33,1.89,1.89,0,0,1-1.41-.59,2.55,2.55,0,0,1-.63-1.7h5c0-.14,0-.24,0-.31a3.68,3.68,0,0,0-.86-2.59A2.9,2.9,0,0,0,232.4,10a3,3,0,0,0-2.27.94,3.71,3.71,0,0,0-.88,2.64,3.56,3.56,0,0,0,.87,2.56A3.06,3.06,0,0,0,232.46,17.08Zm-1.37-5.58a1.83,1.83,0,0,1,1.32-.53,1.77,1.77,0,0,1,1.42.66,2.36,2.36,0,0,1,.43,1.28H230.5A2,2,0,0,1,231.09,11.5Zm7,5.43L236,10.19h1.18l1.08,3.89.4,1.44c0-.07.13-.53.35-1.39l1.07-3.94h1.17l1,3.91.34,1.29.39-1.31,1.15-3.89h1.11l-2.11,6.74H242l-1.08-4-.26-1.15-1.36,5.19Zm33,0-2.47-9.31h1.26l1.42,6.1c.15.64.28,1.28.39,1.91.24-1,.38-1.57.42-1.72l1.77-6.29h1.49l1.33,4.71a24.4,24.4,0,0,1,.72,3.3c.12-.59.28-1.27.47-2l1.46-6h1.23L278,16.93h-1.18l-2-7.09c-.16-.59-.26-1-.29-1.09-.09.42-.19.79-.27,1.09l-2,7.09Zm11.65-8h-1.15V7.62h1.15Zm0,8h-1.15V10.19h1.15Zm2.88,0h-1.14V10.19h1v1A2.42,2.42,0,0,1,287.64,10a2.9,2.9,0,0,1,1.12.22,1.71,1.71,0,0,1,.76.58,2.21,2.21,0,0,1,.36.84,6.88,6.88,0,0,1,.06,1.11v4.15H288.8v-4.1a3.08,3.08,0,0,0-.13-1.05,1.11,1.11,0,0,0-.48-.55,1.46,1.46,0,0,0-.79-.21,1.84,1.84,0,0,0-1.26.47,2.3,2.3,0,0,0-.53,1.76Zm7.09-.29a2.7,2.7,0,0,0,1.48.44,2.1,2.1,0,0,0,1.89-1v.85h1.06V7.62H296V11a2.24,2.24,0,0,0-1.86-.93,2.72,2.72,0,0,0-1.5.44,2.6,2.6,0,0,0-1,1.26,4.89,4.89,0,0,0-.34,1.83,4.39,4.39,0,0,0,.37,1.83A2.94,2.94,0,0,0,292.7,16.64Zm.27-5a1.59,1.59,0,0,1,1.27-.62,1.67,1.67,0,0,1,1.32.65,3.2,3.2,0,0,1,.53,2,2.82,2.82,0,0,1-.53,1.87,1.59,1.59,0,0,1-1.27.61A1.66,1.66,0,0,1,293,15.5a3,3,0,0,1-.54-1.94A3.09,3.09,0,0,1,293,11.6Zm8.69,5.48a3.37,3.37,0,0,0,1.63-.41,2.77,2.77,0,0,0,1.14-1.16,4.48,4.48,0,0,0,.39-2,3.43,3.43,0,0,0-.89-2.51,3,3,0,0,0-2.27-.92,3.14,3.14,0,0,0-2.12.75,3.5,3.5,0,0,0-1,2.78,3.61,3.61,0,0,0,.87,2.61A3,3,0,0,0,301.66,17.08Zm-1.42-5.46a1.81,1.81,0,0,1,1.42-.64,1.79,1.79,0,0,1,1.41.64,2.8,2.8,0,0,1,.57,1.9,3,3,0,0,1-.56,2,1.89,1.89,0,0,1-2.84,0,2.86,2.86,0,0,1-.57-1.94A2.85,2.85,0,0,1,300.24,11.62Zm7.16,5.31-2.06-6.74h1.18l1.07,3.89.4,1.44c0-.07.13-.53.35-1.39l1.07-3.94h1.18l1,3.91.33,1.29.39-1.31,1.15-3.89h1.12l-2.11,6.74h-1.19l-1.07-4L310,11.74l-1.37,5.19Zm32.32,0h-1.23V7.62h1.23v3.82h4.84V7.62h1.23v9.31h-1.23V12.54h-4.84Zm10.81.15a3.14,3.14,0,0,0,1.93-.57,2.87,2.87,0,0,0,1-1.61l-1.18-.14a2.2,2.2,0,0,1-.7,1.05,1.78,1.78,0,0,1-1.08.33,1.89,1.89,0,0,1-1.41-.59,2.6,2.6,0,0,1-.62-1.7h5c0-.14,0-.24,0-.31a3.68,3.68,0,0,0-.86-2.59,2.9,2.9,0,0,0-2.21-.92,3,3,0,0,0-2.27.94,3.76,3.76,0,0,0-.88,2.64,3.56,3.56,0,0,0,.87,2.56A3.08,3.08,0,0,0,350.53,17.08Zm-1.38-5.58a1.83,1.83,0,0,1,1.33-.53,1.73,1.73,0,0,1,1.41.66,2.28,2.28,0,0,1,.43,1.28h-3.76A2.08,2.08,0,0,1,349.15,11.5ZM356,16.93H354.9V7.62H356Zm2.92-.7a2.22,2.22,0,0,0,.74.61,2.17,2.17,0,0,0,1,.24,2.83,2.83,0,0,0,1.49-.44,2.79,2.79,0,0,0,1.07-1.27,4.45,4.45,0,0,0,.38-1.86,4.67,4.67,0,0,0-.34-1.78,2.66,2.66,0,0,0-1-1.25,2.62,2.62,0,0,0-1.52-.45,2.29,2.29,0,0,0-1.12.26,2.64,2.64,0,0,0-.84.77v-.87h-1v9.32H359Zm.45-4.62a1.67,1.67,0,0,1,1.29-.68,1.59,1.59,0,0,1,1.27.64,3,3,0,0,1,.53,1.93,3.08,3.08,0,0,1-.54,2,1.66,1.66,0,0,1-1.31.64,1.61,1.61,0,0,1-1.27-.62,2.9,2.9,0,0,1-.53-1.92A3.1,3.1,0,0,1,359.41,11.61ZM33.27,15.72A8.38,8.38,0,0,1,32.17,18c-.68,1-1.39,2-2.48,2s-1.36-.63-2.61-.63-1.66.65-2.65.65-1.69-.91-2.48-2a9.71,9.71,0,0,1-1.67-5.28c0-3.11,2-4.75,4-4.75,1.06,0,1.94.69,2.6.69s1.61-.73,2.81-.73a3.77,3.77,0,0,1,3.17,1.58,3.59,3.59,0,0,0-1.73,3A3.52,3.52,0,0,0,33.27,15.72Zm-6.53-8a1.4,1.4,0,0,1,0-.29,3.49,3.49,0,0,1,.88-2.16A3.58,3.58,0,0,1,29.94,4a1.58,1.58,0,0,1,0,.32,3.51,3.51,0,0,1-.85,2.22A3.08,3.08,0,0,1,27,7.69Z"/><path class="cls-2" d="M337.23,168.82H118.77a5.09,5.09,0,0,1-5.08-5.08v-133a5.09,5.09,0,0,1,5.08-5.08H337.23a5.09,5.09,0,0,1,5.08,5.08v133A5.09,5.09,0,0,1,337.23,168.82ZM118.77,26.32a4.46,4.46,0,0,0-4.46,4.46v133a4.46,4.46,0,0,0,4.46,4.46H337.23a4.46,4.46,0,0,0,4.46-4.46v-133a4.46,4.46,0,0,0-4.46-4.46ZM332.1,55H122.9a4.91,4.91,0,0,1-4.9-4.9V36.91a4.91,4.91,0,0,1,4.9-4.9H332.1a4.91,4.91,0,0,1,4.9,4.9v13.2A4.91,4.91,0,0,1,332.1,55ZM122.9,33a3.91,3.91,0,0,0-3.9,3.9v13.2a3.91,3.91,0,0,0,3.9,3.9H332.1a3.91,3.91,0,0,0,3.9-3.9V36.91a3.91,3.91,0,0,0-3.9-3.9Zm13.32,15.33h-2l-.81-2.11h-3.72l-.77,2.11h-2l3.63-9.3h2Zm-3.46-3.68-1.28-3.45-1.26,3.45Zm4.46,3.68V39h3a10.46,10.46,0,0,1,2.24.14,2.44,2.44,0,0,1,1.34.91,2.89,2.89,0,0,1,.54,1.81,3.13,3.13,0,0,1-.31,1.44,2.56,2.56,0,0,1-.79.92,2.75,2.75,0,0,1-1,.44,10.71,10.71,0,0,1-2,.13H139.1v3.51Zm1.88-7.73v2.64h1a5.14,5.14,0,0,0,1.48-.14,1.24,1.24,0,0,0,.59-.46,1.27,1.27,0,0,0,.21-.72,1.2,1.2,0,0,0-.3-.84,1.27,1.27,0,0,0-.75-.41,7.9,7.9,0,0,0-1.35-.07Zm12.74,4.31,1.83.58a4.06,4.06,0,0,1-1.4,2.26,3.92,3.92,0,0,1-2.47.74,4,4,0,0,1-3.05-1.26,4.89,4.89,0,0,1-1.19-3.47,5.05,5.05,0,0,1,1.2-3.6,4.1,4.1,0,0,1,3.15-1.29,3.89,3.89,0,0,1,2.78,1,3.7,3.7,0,0,1,.95,1.71l-1.86.45a1.9,1.9,0,0,0-2-1.56,2.1,2.1,0,0,0-1.68.74,3.61,3.61,0,0,0-.64,2.4,3.94,3.94,0,0,0,.63,2.52,2.05,2.05,0,0,0,1.65.75,1.88,1.88,0,0,0,1.29-.48A2.74,2.74,0,0,0,151.84,44.92Zm7.08,3.42V39h1.87v4.13l3.8-4.13h2.53l-3.51,3.62,3.7,5.68h-2.43L162.32,44l-1.53,1.55v2.81Zm13.25-2.14,1.78.3A3,3,0,0,1,172.86,48a3.18,3.18,0,0,1-1.85.51,3,3,0,0,1-2.6-1.15,3.92,3.92,0,0,1-.67-2.33,3.74,3.74,0,0,1,.88-2.62,2.9,2.9,0,0,1,2.22-.95,3,3,0,0,1,2.37,1,4.4,4.4,0,0,1,.83,3.05h-4.47a1.84,1.84,0,0,0,.43,1.23,1.34,1.34,0,0,0,1,.44,1.06,1.06,0,0,0,.71-.23A1.39,1.39,0,0,0,172.17,46.2Zm.1-1.8a1.73,1.73,0,0,0-.4-1.18,1.22,1.22,0,0,0-.93-.41,1.24,1.24,0,0,0-1,.43,1.64,1.64,0,0,0-.38,1.16Zm2.38-2.8h1.9l1.61,4.79,1.58-4.79h1.84l-2.38,6.49-.42,1.17a5.1,5.1,0,0,1-.45.91,1.94,1.94,0,0,1-.49.5,2,2,0,0,1-.68.3,3.6,3.6,0,0,1-.91.11,4.88,4.88,0,0,1-1-.11l-.16-1.39a4.37,4.37,0,0,0,.76.08,1.11,1.11,0,0,0,.92-.37,2.38,2.38,0,0,0,.45-.93ZM192,46.69v1.65h-6.25a4.2,4.2,0,0,1,.61-1.78,11.9,11.9,0,0,1,2-2.23,11.91,11.91,0,0,0,1.48-1.52,1.93,1.93,0,0,0,.37-1.09,1.25,1.25,0,0,0-.32-.92,1.21,1.21,0,0,0-.89-.32,1.15,1.15,0,0,0-.88.34,1.73,1.73,0,0,0-.39,1.11l-1.77-.18a2.92,2.92,0,0,1,1-2.11A3.34,3.34,0,0,1,189,39a3,3,0,0,1,2.16.74,2.43,2.43,0,0,1,.79,1.85,3.24,3.24,0,0,1-.23,1.2A4.78,4.78,0,0,1,191,44a11.18,11.18,0,0,1-1.17,1.18c-.56.52-.92.86-1.07,1a3,3,0,0,0-.36.5Zm1.23-.74,1.78-.18a1.5,1.5,0,0,0,.45.95,1.23,1.23,0,0,0,1.81-.1,2.05,2.05,0,0,0,.39-1.37,1.83,1.83,0,0,0-.39-1.28,1.26,1.26,0,0,0-1-.43,1.81,1.81,0,0,0-1.37.68L193.43,44l.91-4.84h4.72v1.66h-3.37l-.28,1.59a2.71,2.71,0,0,1,1.22-.3,2.66,2.66,0,0,1,2,.86,3.07,3.07,0,0,1,.83,2.24,3.32,3.32,0,0,1-.67,2.05,2.94,2.94,0,0,1-2.52,1.23,3.13,3.13,0,0,1-2.1-.69A2.87,2.87,0,0,1,193.21,46Zm11.07-4.35h1.64v.92a2.66,2.66,0,0,1,2.1-1.07,2.21,2.21,0,0,1,1.12.27,1.94,1.94,0,0,1,.78.8,3.06,3.06,0,0,1,1-.8,2.35,2.35,0,0,1,1.1-.27,2.45,2.45,0,0,1,1.26.3,1.87,1.87,0,0,1,.77.89,3.86,3.86,0,0,1,.18,1.39v4.31h-1.78V44.49a2.7,2.7,0,0,0-.19-1.29.83.83,0,0,0-.76-.39,1.22,1.22,0,0,0-.7.23,1.34,1.34,0,0,0-.48.67,4.75,4.75,0,0,0-.15,1.4v3.23h-1.78V44.65a5.39,5.39,0,0,0-.09-1.27A.93.93,0,0,0,208,43a.94.94,0,0,0-.54-.14,1.25,1.25,0,0,0-1.22.87,5,5,0,0,0-.14,1.39v3.27h-1.78Zm11.62,6.74V39h1.79V44l2.09-2.38H222l-2.3,2.47,2.47,4.27h-1.93l-1.69-3-.83.87v2.15Zm12.94-1.65v1.65h-6.25a4.34,4.34,0,0,1,.61-1.78,12.28,12.28,0,0,1,2-2.23,11.91,11.91,0,0,0,1.48-1.52,1.93,1.93,0,0,0,.37-1.09,1.25,1.25,0,0,0-.32-.92,1.21,1.21,0,0,0-.89-.32,1.15,1.15,0,0,0-.88.34,1.68,1.68,0,0,0-.38,1.11l-1.78-.18a2.92,2.92,0,0,1,1-2.11,3.34,3.34,0,0,1,2.1-.64,3,3,0,0,1,2.16.74,2.43,2.43,0,0,1,.79,1.85,3.23,3.23,0,0,1-.22,1.2A5.17,5.17,0,0,1,227.9,44a10.25,10.25,0,0,1-1.17,1.18c-.56.52-.92.86-1.07,1a3,3,0,0,0-.36.5ZM240,44.92l1.82.58a4.06,4.06,0,0,1-1.4,2.26,3.9,3.9,0,0,1-2.47.74,4,4,0,0,1-3-1.26,4.85,4.85,0,0,1-1.2-3.47,5.05,5.05,0,0,1,1.2-3.6,4.11,4.11,0,0,1,3.16-1.29,3.89,3.89,0,0,1,2.77,1,3.7,3.7,0,0,1,1,1.71l-1.86.45a2,2,0,0,0-.69-1.15,1.94,1.94,0,0,0-1.27-.41,2.1,2.1,0,0,0-1.68.74,3.61,3.61,0,0,0-.64,2.4,3.94,3.94,0,0,0,.63,2.52,2.08,2.08,0,0,0,1.65.75,1.88,1.88,0,0,0,1.29-.48A2.81,2.81,0,0,0,240,44.92Zm3,0a3.65,3.65,0,0,1,.43-1.72,3,3,0,0,1,1.24-1.27,3.75,3.75,0,0,1,1.8-.44,3.35,3.35,0,0,1,2.5,1A3.41,3.41,0,0,1,250,45a3.48,3.48,0,0,1-1,2.54,3.32,3.32,0,0,1-2.48,1,3.91,3.91,0,0,1-1.77-.42,2.93,2.93,0,0,1-1.28-1.23A4.13,4.13,0,0,1,243,44.88Zm1.82.09a2.24,2.24,0,0,0,.48,1.54,1.53,1.53,0,0,0,1.17.53,1.5,1.5,0,0,0,1.17-.53,2.25,2.25,0,0,0,.48-1.55,2.18,2.18,0,0,0-.48-1.52,1.48,1.48,0,0,0-1.17-.54,1.51,1.51,0,0,0-1.17.54A2.19,2.19,0,0,0,244.84,45Zm12.66,3.37h-1.78V44.9a5.07,5.07,0,0,0-.12-1.41,1,1,0,0,0-.37-.5,1.05,1.05,0,0,0-.62-.18,1.43,1.43,0,0,0-.83.26,1.29,1.29,0,0,0-.5.67,5.85,5.85,0,0,0-.14,1.55v3.05h-1.78V41.6H253v1a2.7,2.7,0,0,1,2.22-1.14,2.67,2.67,0,0,1,1.08.21,1.73,1.73,0,0,1,.74.55,1.87,1.87,0,0,1,.35.74,5.29,5.29,0,0,1,.1,1.2Zm4.9-6.74V43h-1.22v2.72a5.47,5.47,0,0,0,0,1,.36.36,0,0,0,.16.23.49.49,0,0,0,.3.09,2.4,2.4,0,0,0,.71-.17l.16,1.38a3.55,3.55,0,0,1-1.41.27,2.21,2.21,0,0,1-.87-.17,1.2,1.2,0,0,1-.57-.41,1.8,1.8,0,0,1-.25-.7,8.32,8.32,0,0,1-.06-1.26V43h-.82V41.6h.82V40.26l1.79-1V41.6Zm3,6.74h-1.79V41.6h1.66v1a2.87,2.87,0,0,1,.76-.89,1.39,1.39,0,0,1,.78-.22,2.23,2.23,0,0,1,1.17.34l-.55,1.55a1.6,1.6,0,0,0-.84-.29,1,1,0,0,0-.64.21,1.32,1.32,0,0,0-.4.74,10.52,10.52,0,0,0-.15,2.26Zm2.94-3.46a3.65,3.65,0,0,1,.43-1.72A3,3,0,0,1,270,41.89a3.75,3.75,0,0,1,1.8-.44,3.35,3.35,0,0,1,2.5,1,3.41,3.41,0,0,1,1,2.51,3.48,3.48,0,0,1-1,2.54,3.32,3.32,0,0,1-2.48,1,3.91,3.91,0,0,1-1.77-.42,2.93,2.93,0,0,1-1.28-1.23A4.13,4.13,0,0,1,268.29,44.88Zm1.82.09a2.24,2.24,0,0,0,.48,1.54,1.53,1.53,0,0,0,1.17.53,1.5,1.5,0,0,0,1.17-.53,2.25,2.25,0,0,0,.48-1.55,2.18,2.18,0,0,0-.48-1.52,1.48,1.48,0,0,0-1.17-.54,1.51,1.51,0,0,0-1.17.54A2.19,2.19,0,0,0,270.11,45Zm6.53,3.37V39h1.78v9.3Zm-149.77,22,3.57-9.3h1.33l3.8,9.3h-1.4l-1.08-2.81H129.2l-1,2.81Zm2.68-3.82h3.16l-1-2.57c-.29-.79-.51-1.43-.66-1.93a10.67,10.67,0,0,1-.5,1.77Zm7,3.82V61h3.51a8.23,8.23,0,0,1,1.41.09,2.76,2.76,0,0,1,1.15.43,2.31,2.31,0,0,1,.75.9,2.85,2.85,0,0,1,.28,1.27,2.88,2.88,0,0,1-.75,2,3.64,3.64,0,0,1-2.73.82h-2.39v3.78Zm1.23-4.88h2.41a2.58,2.58,0,0,0,1.69-.44,1.6,1.6,0,0,0,.5-1.25,1.71,1.71,0,0,0-.29-1,1.39,1.39,0,0,0-.78-.55,5,5,0,0,0-1.15-.08h-2.38Zm14.08,1.62,1.23.31a4.21,4.21,0,0,1-1.39,2.32,3.84,3.84,0,0,1-2.46.79,4.4,4.4,0,0,1-2.45-.61,3.78,3.78,0,0,1-1.43-1.77,6.34,6.34,0,0,1-.5-2.5,5.53,5.53,0,0,1,.56-2.54A3.85,3.85,0,0,1,147,61.44a4.67,4.67,0,0,1,2.26-.56,3.86,3.86,0,0,1,2.35.71,3.69,3.69,0,0,1,1.32,2l-1.21.29a2.9,2.9,0,0,0-.94-1.48,2.51,2.51,0,0,0-1.55-.47,3,3,0,0,0-1.79.52,2.66,2.66,0,0,0-1,1.38,5.41,5.41,0,0,0-.3,1.78,5.7,5.7,0,0,0,.35,2.08A2.55,2.55,0,0,0,147.57,69a3,3,0,0,0,1.58.44,2.64,2.64,0,0,0,1.75-.6A3.06,3.06,0,0,0,151.87,67.08Zm6.31,3.26V61h1.23v4.61L164,61h1.67l-3.9,3.77,4.07,5.53h-1.62l-3.32-4.71-1.52,1.49v3.22Zm13.19-2.17,1.18.15a2.89,2.89,0,0,1-1,1.6,3.48,3.48,0,0,1-4.28-.34,3.52,3.52,0,0,1-.87-2.55,3.76,3.76,0,0,1,.88-2.64,2.94,2.94,0,0,1,2.27-.94,2.9,2.9,0,0,1,2.21.92,3.66,3.66,0,0,1,.86,2.59c0,.07,0,.17,0,.31h-5a2.68,2.68,0,0,0,.63,1.7,1.89,1.89,0,0,0,1.41.59,1.73,1.73,0,0,0,1.07-.33A2.13,2.13,0,0,0,171.37,68.17Zm-3.75-1.84h3.76a2.25,2.25,0,0,0-.43-1.28,1.75,1.75,0,0,0-1.41-.66,1.83,1.83,0,0,0-1.33.53A2.08,2.08,0,0,0,167.62,66.33Zm6.31,6.61-.12-1.07a2.4,2.4,0,0,0,.65.1,1.2,1.2,0,0,0,.61-.13,1,1,0,0,0,.37-.35,5.05,5.05,0,0,0,.35-.85c0-.07.06-.16.1-.28l-2.55-6.76h1.23l1.4,3.91a15.88,15.88,0,0,1,.49,1.56,15.28,15.28,0,0,1,.47-1.54l1.44-3.93h1.14L177,70.46a15.2,15.2,0,0,1-.64,1.53,2.46,2.46,0,0,1-.7.83,1.7,1.7,0,0,1-.94.26A2.45,2.45,0,0,1,173.93,72.94Zm15.85-3.69v1.09h-6.15a1.94,1.94,0,0,1,.14-.79,4,4,0,0,1,.75-1.24A12.44,12.44,0,0,1,186,66.9a12.3,12.3,0,0,0,2.05-2,2.32,2.32,0,0,0,.54-1.37,1.56,1.56,0,0,0-.49-1.15,1.74,1.74,0,0,0-1.27-.46,1.78,1.78,0,0,0-1.32.49,1.9,1.9,0,0,0-.5,1.37l-1.17-.12a2.88,2.88,0,0,1,.91-2,3.08,3.08,0,0,1,2.11-.69,3,3,0,0,1,2.12.74,2.45,2.45,0,0,1,.78,1.84,2.65,2.65,0,0,1-.23,1.1,4.1,4.1,0,0,1-.76,1.14A18.57,18.57,0,0,1,187,67.46q-1,.86-1.32,1.17a3.83,3.83,0,0,0-.48.62ZM191,67.91l1.2-.11a2.11,2.11,0,0,0,.62,1.32,1.64,1.64,0,0,0,1.17.44,1.79,1.79,0,0,0,1.39-.62,2.29,2.29,0,0,0,.58-1.65,2.13,2.13,0,0,0-.55-1.54,1.92,1.92,0,0,0-1.44-.57,2.09,2.09,0,0,0-1,.25,2,2,0,0,0-.69.65l-1.08-.14.9-4.77h4.63v1.09H193l-.5,2.5a3,3,0,0,1,1.75-.59,2.8,2.8,0,0,1,2.06.85,2.93,2.93,0,0,1,.84,2.17,3.38,3.38,0,0,1-.74,2.18A2.92,2.92,0,0,1,194,70.5a3,3,0,0,1-2.07-.71A2.72,2.72,0,0,1,191,67.91Zm11.16,2.43V63.6h1v.95a2.35,2.35,0,0,1,2-1.1,2.2,2.2,0,0,1,1.23.31,1.68,1.68,0,0,1,.68.87,2.41,2.41,0,0,1,2.08-1.18,2,2,0,0,1,1.54.56,2.37,2.37,0,0,1,.54,1.71v4.62h-1.13V66.1a2.91,2.91,0,0,0-.12-1,1,1,0,0,0-.4-.49,1.25,1.25,0,0,0-.68-.18,1.6,1.6,0,0,0-1.18.47,2.07,2.07,0,0,0-.47,1.52v3.91h-1.15V66a1.92,1.92,0,0,0-.28-1.14,1.06,1.06,0,0,0-.91-.38,1.64,1.64,0,0,0-.89.25,1.46,1.46,0,0,0-.6.75,4.22,4.22,0,0,0-.18,1.41v3.49Zm10.83,0V61h1.15v5.3l2.7-2.74h1.48l-2.58,2.5,2.84,4.24h-1.41L215,66.9l-.8.77v2.67Zm12.18-1.09v1.09H219a2.12,2.12,0,0,1,.14-.79,4,4,0,0,1,.75-1.24,12.44,12.44,0,0,1,1.49-1.41,11.9,11.9,0,0,0,2.05-2,2.32,2.32,0,0,0,.54-1.37,1.52,1.52,0,0,0-.49-1.15,1.73,1.73,0,0,0-1.26-.46,1.78,1.78,0,0,0-1.32.49,1.91,1.91,0,0,0-.51,1.37l-1.17-.12a2.88,2.88,0,0,1,.91-2,3.08,3.08,0,0,1,2.11-.69,3,3,0,0,1,2.12.74,2.45,2.45,0,0,1,.78,1.84,2.65,2.65,0,0,1-.23,1.1,4.28,4.28,0,0,1-.75,1.14,20.39,20.39,0,0,1-1.77,1.64q-1,.86-1.32,1.17a3.83,3.83,0,0,0-.48.62Zm5.25,1.09V61h1.24v4.61L236.29,61H238l-3.91,3.77,4.08,5.53H236.5l-3.31-4.71-1.52,1.49v3.22Zm13.19-2.17,1.18.15a2.84,2.84,0,0,1-1,1.6,3.46,3.46,0,0,1-4.27-.34,3.52,3.52,0,0,1-.87-2.55,3.75,3.75,0,0,1,.87-2.64,3,3,0,0,1,2.28-.94,2.9,2.9,0,0,1,2.21.92,3.66,3.66,0,0,1,.85,2.59v.31h-5a2.57,2.57,0,0,0,.63,1.7,1.86,1.86,0,0,0,1.41.59,1.75,1.75,0,0,0,1.07-.33A2.12,2.12,0,0,0,243.62,68.17Zm-3.75-1.84h3.77a2.33,2.33,0,0,0-.43-1.28,1.77,1.77,0,0,0-1.42-.66,1.81,1.81,0,0,0-1.32.53A2.08,2.08,0,0,0,239.87,66.33Zm6.32,6.61-.13-1.07a2.46,2.46,0,0,0,.66.1,1.23,1.23,0,0,0,.61-.13,1,1,0,0,0,.37-.35,6.14,6.14,0,0,0,.35-.85,2.53,2.53,0,0,1,.1-.28l-2.56-6.76h1.23l1.41,3.91a15.9,15.9,0,0,1,.48,1.56,15.32,15.32,0,0,1,.48-1.54l1.44-3.93h1.14l-2.57,6.86a13.12,13.12,0,0,1-.64,1.53,2.34,2.34,0,0,1-.69.83,1.72,1.72,0,0,1-.94.26A2.39,2.39,0,0,1,246.19,72.94Zm6.09-4.61,1.13-.18a1.58,1.58,0,0,0,.53,1,1.82,1.82,0,0,0,1.22.37,1.83,1.83,0,0,0,1.17-.32,1,1,0,0,0,.38-.76.72.72,0,0,0-.34-.61,5,5,0,0,0-1.17-.38,11,11,0,0,1-1.74-.55,1.65,1.65,0,0,1-1-1.55,1.68,1.68,0,0,1,.21-.83,1.82,1.82,0,0,1,.56-.64,2.37,2.37,0,0,1,.73-.33,3.48,3.48,0,0,1,1-.14,4,4,0,0,1,1.39.23,1.86,1.86,0,0,1,.88.62,2.41,2.41,0,0,1,.4,1l-1.12.15a1.25,1.25,0,0,0-.44-.81,1.64,1.64,0,0,0-1-.29,1.92,1.92,0,0,0-1.13.26.76.76,0,0,0-.33.61.59.59,0,0,0,.14.4,1,1,0,0,0,.44.3c.11.05.45.14,1,.3a12.83,12.83,0,0,1,1.7.53,1.6,1.6,0,0,1,.75.6,1.66,1.66,0,0,1,.27,1,2,2,0,0,1-.33,1.08,2.08,2.08,0,0,1-1,.78,3.61,3.61,0,0,1-1.43.28,3.2,3.2,0,0,1-2-.55A2.53,2.53,0,0,1,252.28,68.33Zm-125.41,23,3.57-9.3h1.33l3.8,9.3h-1.4l-1.08-2.81H129.2l-1,2.81Zm2.68-3.82h3.16l-1-2.57c-.29-.79-.51-1.43-.66-1.93a10.67,10.67,0,0,1-.5,1.77Zm7,3.82V82h3.51a8.23,8.23,0,0,1,1.41.09,2.76,2.76,0,0,1,1.15.43,2.31,2.31,0,0,1,.75.9,2.85,2.85,0,0,1,.28,1.27,2.88,2.88,0,0,1-.75,2,3.64,3.64,0,0,1-2.73.82h-2.39v3.78Zm1.23-4.88h2.41a2.58,2.58,0,0,0,1.69-.44,1.6,1.6,0,0,0,.5-1.25,1.71,1.71,0,0,0-.29-1,1.39,1.39,0,0,0-.78-.55,5,5,0,0,0-1.15-.08h-2.38Zm14.08,1.62,1.23.31a4.21,4.21,0,0,1-1.39,2.32,3.84,3.84,0,0,1-2.46.79,4.4,4.4,0,0,1-2.45-.61,3.78,3.78,0,0,1-1.43-1.77,6.34,6.34,0,0,1-.5-2.5,5.53,5.53,0,0,1,.56-2.54A3.85,3.85,0,0,1,147,82.44a4.67,4.67,0,0,1,2.26-.56,3.86,3.86,0,0,1,2.35.71,3.69,3.69,0,0,1,1.32,2l-1.21.29a2.9,2.9,0,0,0-.94-1.48,2.51,2.51,0,0,0-1.55-.47,3,3,0,0,0-1.79.52,2.66,2.66,0,0,0-1,1.38,5.41,5.41,0,0,0-.3,1.78,5.7,5.7,0,0,0,.35,2.08A2.55,2.55,0,0,0,147.57,90a3,3,0,0,0,1.58.44,2.64,2.64,0,0,0,1.75-.6A3.06,3.06,0,0,0,151.87,88.08Zm6.31,3.26V82h1.23v4.61L164,82h1.67l-3.9,3.77,4.07,5.53h-1.62l-3.32-4.71-1.52,1.49v3.22Zm13.19-2.17,1.18.15a2.89,2.89,0,0,1-1,1.6,3.48,3.48,0,0,1-4.28-.34,3.52,3.52,0,0,1-.87-2.55,3.76,3.76,0,0,1,.88-2.64,2.94,2.94,0,0,1,2.27-.94,2.9,2.9,0,0,1,2.21.92,3.66,3.66,0,0,1,.86,2.59c0,.07,0,.17,0,.31h-5a2.68,2.68,0,0,0,.63,1.7,1.89,1.89,0,0,0,1.41.59,1.73,1.73,0,0,0,1.07-.33A2.13,2.13,0,0,0,171.37,89.17Zm-3.75-1.84h3.76a2.25,2.25,0,0,0-.43-1.28,1.75,1.75,0,0,0-1.41-.66,1.83,1.83,0,0,0-1.33.53A2.08,2.08,0,0,0,167.62,87.33Zm6.31,6.61-.12-1.07a2.4,2.4,0,0,0,.65.1,1.2,1.2,0,0,0,.61-.13,1,1,0,0,0,.37-.35,5.05,5.05,0,0,0,.35-.85c0-.07.06-.16.1-.28l-2.55-6.76h1.23l1.4,3.91a15.88,15.88,0,0,1,.49,1.56,15.28,15.28,0,0,1,.47-1.54l1.44-3.93h1.14L177,91.46a15.2,15.2,0,0,1-.64,1.53,2.46,2.46,0,0,1-.7.83,1.7,1.7,0,0,1-.94.26A2.45,2.45,0,0,1,173.93,93.94Zm15.85-3.69v1.09h-6.15a1.94,1.94,0,0,1,.14-.79,4,4,0,0,1,.75-1.24A12.44,12.44,0,0,1,186,87.9a12.3,12.3,0,0,0,2.05-2,2.32,2.32,0,0,0,.54-1.37,1.56,1.56,0,0,0-.49-1.15,1.74,1.74,0,0,0-1.27-.46,1.78,1.78,0,0,0-1.32.49,1.9,1.9,0,0,0-.5,1.37l-1.17-.12a2.88,2.88,0,0,1,.91-2,3.08,3.08,0,0,1,2.11-.69,3,3,0,0,1,2.12.74,2.45,2.45,0,0,1,.78,1.84,2.65,2.65,0,0,1-.23,1.1,4.1,4.1,0,0,1-.76,1.14A18.57,18.57,0,0,1,187,88.46q-1,.86-1.32,1.17a3.83,3.83,0,0,0-.48.62ZM191,88.91l1.2-.11a2.11,2.11,0,0,0,.62,1.32,1.64,1.64,0,0,0,1.17.44,1.79,1.79,0,0,0,1.39-.62,2.29,2.29,0,0,0,.58-1.65,2.13,2.13,0,0,0-.55-1.54,1.92,1.92,0,0,0-1.44-.57,2.09,2.09,0,0,0-1,.25,2,2,0,0,0-.69.65l-1.08-.14.9-4.77h4.63v1.09H193l-.5,2.5a3,3,0,0,1,1.75-.59,2.8,2.8,0,0,1,2.06.85,2.93,2.93,0,0,1,.84,2.17,3.38,3.38,0,0,1-.74,2.18A2.92,2.92,0,0,1,194,91.5a3,3,0,0,1-2.07-.71A2.72,2.72,0,0,1,191,88.91Zm-64.14,23.43,3.57-9.3h1.33l3.8,9.3h-1.4l-1.08-2.81H129.2l-1,2.81Zm2.68-3.82h3.16l-1-2.57c-.29-.79-.51-1.43-.66-1.93a10.67,10.67,0,0,1-.5,1.77Zm7,3.82V103h3.51a8.23,8.23,0,0,1,1.41.09,2.76,2.76,0,0,1,1.15.43,2.31,2.31,0,0,1,.75.9,2.85,2.85,0,0,1,.28,1.27,2.88,2.88,0,0,1-.75,2,3.64,3.64,0,0,1-2.73.82h-2.39v3.78Zm1.23-4.88h2.41a2.58,2.58,0,0,0,1.69-.44,1.6,1.6,0,0,0,.5-1.25,1.71,1.71,0,0,0-.29-1,1.39,1.39,0,0,0-.78-.55,5,5,0,0,0-1.15-.08h-2.38Zm14.08,1.62,1.23.31a4.21,4.21,0,0,1-1.39,2.32,3.84,3.84,0,0,1-2.46.79,4.4,4.4,0,0,1-2.45-.61,3.78,3.78,0,0,1-1.43-1.77,6.34,6.34,0,0,1-.5-2.5,5.53,5.53,0,0,1,.56-2.54,3.85,3.85,0,0,1,1.58-1.64,4.67,4.67,0,0,1,2.26-.56,3.86,3.86,0,0,1,2.35.71,3.69,3.69,0,0,1,1.32,2l-1.21.29a2.9,2.9,0,0,0-.94-1.48,2.51,2.51,0,0,0-1.55-.47,3,3,0,0,0-1.79.52,2.66,2.66,0,0,0-1,1.38,5.41,5.41,0,0,0-.3,1.78,5.7,5.7,0,0,0,.35,2.08,2.55,2.55,0,0,0,1.08,1.32,3,3,0,0,0,1.58.44,2.64,2.64,0,0,0,1.75-.6A3.06,3.06,0,0,0,151.87,109.08Zm6.32,3.26V103H160l2.21,6.59c.2.61.35,1.07.44,1.37.11-.33.27-.83.5-1.49l2.23-6.47h1.65v9.3h-1.19v-7.78l-2.7,7.78h-1.11l-2.69-7.92v7.92Zm11.08,0V103h1.23v9.3Zm3.39,0V103h1.26l4.89,7.3V103H180v9.3h-1.26L173.84,105v7.31Zm9.61,0V103h1.23v9.3Zm-55.4,23,3.57-9.3h1.33l3.8,9.3h-1.4l-1.08-2.81H129.2l-1,2.81Zm2.68-3.82h3.16l-1-2.57c-.29-.79-.51-1.43-.66-1.93a10.67,10.67,0,0,1-.5,1.77Zm6.85,3.82V128.6h1v1a2.69,2.69,0,0,1,.73-.94,1.26,1.26,0,0,1,.73-.23,2.2,2.2,0,0,1,1.17.37l-.39,1.06a1.6,1.6,0,0,0-.84-.25,1.09,1.09,0,0,0-.67.23,1.22,1.22,0,0,0-.43.62,4.7,4.7,0,0,0-.19,1.33v3.53Zm6.84-1,.16,1a4.06,4.06,0,0,1-.86.1,2,2,0,0,1-1-.19,1.14,1.14,0,0,1-.48-.52,4.19,4.19,0,0,1-.14-1.35v-3.88h-.84v-.89H141v-1.67l1.14-.68v2.35h1.15v.89h-1.15v3.94a2,2,0,0,0,.06.63.45.45,0,0,0,.19.22.75.75,0,0,0,.39.09A3.92,3.92,0,0,0,143.24,134.32Zm5.53,1v-1a2.45,2.45,0,0,1-2.14,1.15,2.72,2.72,0,0,1-1.11-.23,1.82,1.82,0,0,1-.77-.58,2.13,2.13,0,0,1-.35-.84,5.56,5.56,0,0,1-.07-1.07V128.6h1.14v3.74a6.39,6.39,0,0,0,.07,1.21,1.14,1.14,0,0,0,.46.7,1.35,1.35,0,0,0,.86.26,2,2,0,0,0,1-.26,1.46,1.46,0,0,0,.63-.72,3.48,3.48,0,0,0,.19-1.32V128.6h1.14v6.74Zm2.8,0V128.6h1v1a2.69,2.69,0,0,1,.73-.94,1.26,1.26,0,0,1,.73-.23,2.17,2.17,0,0,1,1.17.37l-.39,1.06a1.6,1.6,0,0,0-.84-.25,1.09,1.09,0,0,0-.67.23,1.22,1.22,0,0,0-.43.62,4.7,4.7,0,0,0-.19,1.33v3.53Zm4.35-8V126h1.14v1.31Zm0,8V128.6h1.14v6.74Zm7.28-.83a4,4,0,0,1-1.22.76,3.48,3.48,0,0,1-1.26.23A2.43,2.43,0,0,1,159,135a1.77,1.77,0,0,1-.6-1.38,1.86,1.86,0,0,1,.23-.91,2,2,0,0,1,.59-.66,2.78,2.78,0,0,1,.82-.37,7.29,7.29,0,0,1,1-.17,10.52,10.52,0,0,0,2-.39c0-.16,0-.26,0-.3a1.29,1.29,0,0,0-.32-1,1.9,1.9,0,0,0-1.3-.38,2,2,0,0,0-1.2.28,1.74,1.74,0,0,0-.56,1l-1.12-.15a2.76,2.76,0,0,1,.5-1.16,2.15,2.15,0,0,1,1-.68,4.47,4.47,0,0,1,1.53-.24,4.16,4.16,0,0,1,1.4.2,2,2,0,0,1,.8.51,1.86,1.86,0,0,1,.35.78,6.24,6.24,0,0,1,.06,1.06v1.52a16,16,0,0,0,.07,2,2.53,2.53,0,0,0,.29.81h-1.19A2.25,2.25,0,0,1,163.2,134.51Zm-.1-2.55a8.3,8.3,0,0,1-1.86.43,4.83,4.83,0,0,0-1,.23,1.1,1.1,0,0,0-.45.37,1,1,0,0,0-.16.54,1,1,0,0,0,.35.77,1.5,1.5,0,0,0,1,.3,2.43,2.43,0,0,0,1.18-.29,1.74,1.74,0,0,0,.75-.79,2.82,2.82,0,0,0,.18-1.14Zm6.65,3.38V126h1.85l2.21,6.59c.2.61.35,1.07.44,1.37.11-.33.27-.83.5-1.49L177,126h1.66v9.3h-1.19v-7.78l-2.7,7.78h-1.11l-2.69-7.92v7.92Zm10.73-8V126h1.14v1.31Zm0,8V128.6h1.14v6.74Zm2.88,0V128.6h1v1a2.41,2.41,0,0,1,2.14-1.11,2.73,2.73,0,0,1,1.12.22,1.87,1.87,0,0,1,.77.57,2.09,2.09,0,0,1,.35.85,5.63,5.63,0,0,1,.07,1.11v4.14H187.7v-4.1a3,3,0,0,0-.14-1,1,1,0,0,0-.47-.55,1.49,1.49,0,0,0-.8-.21,1.87,1.87,0,0,0-1.26.46,2.31,2.31,0,0,0-.53,1.76v3.68Zm7.24-8V126h1.14v1.31Zm0,8V128.6h1.14v6.74Zm3,0V126h1.23v8.21h4.59v1.09Zm11.54-.83a4.08,4.08,0,0,1-1.23.76,3.48,3.48,0,0,1-1.26.23,2.4,2.4,0,0,1-1.7-.55,1.77,1.77,0,0,1-.6-1.38,1.91,1.91,0,0,1,.82-1.57,2.67,2.67,0,0,1,.82-.37,7.09,7.09,0,0,1,1-.17,10.49,10.49,0,0,0,2-.39c0-.16,0-.26,0-.3a1.25,1.25,0,0,0-.33-1,1.89,1.89,0,0,0-1.3-.38,2,2,0,0,0-1.19.28,1.8,1.8,0,0,0-.57,1l-1.11-.15a2.76,2.76,0,0,1,.5-1.16,2.15,2.15,0,0,1,1-.68,4.47,4.47,0,0,1,1.53-.24,4.2,4.2,0,0,1,1.4.2,1.93,1.93,0,0,1,.79.51,1.88,1.88,0,0,1,.36.78,6.24,6.24,0,0,1,.06,1.06v1.52a16,16,0,0,0,.07,2,2.31,2.31,0,0,0,.29.81h-1.19A2.25,2.25,0,0,1,205.11,134.51ZM205,132a8.44,8.44,0,0,1-1.86.43,4.67,4.67,0,0,0-1,.23,1,1,0,0,0-.45.37,1,1,0,0,0-.16.54,1,1,0,0,0,.34.77,1.53,1.53,0,0,0,1,.3,2.36,2.36,0,0,0,1.17-.29,1.71,1.71,0,0,0,.76-.79,2.82,2.82,0,0,0,.18-1.14Zm4,3.38h-1.06V126h1.14v3.32a2.26,2.26,0,0,1,1.85-.91,2.78,2.78,0,0,1,1.18.25,2.37,2.37,0,0,1,.91.71,3.21,3.21,0,0,1,.56,1.09,4.37,4.37,0,0,1,.21,1.37,3.85,3.85,0,0,1-.86,2.68,2.69,2.69,0,0,1-2.06.95,2.16,2.16,0,0,1-1.87-1Zm0-3.42a3.49,3.49,0,0,0,.33,1.75,1.63,1.63,0,0,0,2.75.24,2.93,2.93,0,0,0,.55-1.94,3,3,0,0,0-.52-1.95,1.61,1.61,0,0,0-1.27-.63,1.64,1.64,0,0,0-1.29.65A2.81,2.81,0,0,0,209,131.92Zm9.8,3.42V128.6h1v1a2.34,2.34,0,0,1,.85-.8,2.38,2.38,0,0,1,1.2-.3,2.17,2.17,0,0,1,1.22.31,1.68,1.68,0,0,1,.68.87,2.41,2.41,0,0,1,2.08-1.18,2.09,2.09,0,0,1,1.55.56,2.41,2.41,0,0,1,.53,1.71v4.62h-1.13V131.1a3.26,3.26,0,0,0-.11-1,1,1,0,0,0-.41-.49,1.25,1.25,0,0,0-.68-.18,1.6,1.6,0,0,0-1.18.47,2.07,2.07,0,0,0-.47,1.52v3.91h-1.14V131a2,2,0,0,0-.28-1.14,1.08,1.08,0,0,0-.92-.38,1.64,1.64,0,0,0-.89.25,1.44,1.44,0,0,0-.59.75,3.94,3.94,0,0,0-.19,1.41v3.49Zm10.84,0V126h1.14v5.3l2.7-2.74h1.48l-2.58,2.5,2.84,4.24h-1.41l-2.23-3.44-.8.77v2.67Zm6.84,0V126h1.24v9.3Zm3.62,0V126h1.23v9.3Zm-113.21,22,3.57-9.3h1.33l3.8,9.3h-1.4l-1.08-2.81H129.2l-1,2.81Zm2.68-3.82h3.16l-1-2.57c-.29-.79-.51-1.43-.66-1.93a10.67,10.67,0,0,1-.5,1.77Zm6.1,3.82,2.46-3.5-2.28-3.24h1.43l1,1.58.47.76c.18-.28.35-.53.51-.74l1.14-1.6h1.36l-2.33,3.18,2.51,3.56h-1.4l-1.39-2.09-.36-.57L137,157.34Zm7.27-8V148h1.14v1.31Zm0,8V150.6h1.14v6.74Zm7.3,0v-1a2.47,2.47,0,0,1-2.14,1.15,2.8,2.8,0,0,1-1.12-.23,1.85,1.85,0,0,1-.76-.58,2,2,0,0,1-.35-.84,5.56,5.56,0,0,1-.07-1.07V150.6h1.14v3.74a6.39,6.39,0,0,0,.07,1.21,1.14,1.14,0,0,0,.46.7,1.34,1.34,0,0,0,.86.26,1.92,1.92,0,0,0,1-.26,1.48,1.48,0,0,0,.64-.72,3.48,3.48,0,0,0,.19-1.32V150.6h1.14v6.74Zm2.81,0V150.6h1v1a2.42,2.42,0,0,1,.85-.8,2.38,2.38,0,0,1,1.2-.3,2.2,2.2,0,0,1,1.23.31,1.72,1.72,0,0,1,.67.87,2.41,2.41,0,0,1,2.08-1.18,2,2,0,0,1,1.54.56,2.33,2.33,0,0,1,.55,1.71v4.62H161V153.1a3.26,3.26,0,0,0-.11-1,1,1,0,0,0-.41-.49,1.25,1.25,0,0,0-.68-.18,1.61,1.61,0,0,0-1.18.47,2.11,2.11,0,0,0-.47,1.52v3.91H157V153a2,2,0,0,0-.28-1.14,1.08,1.08,0,0,0-.92-.38,1.64,1.64,0,0,0-.89.25,1.44,1.44,0,0,0-.59.75,3.94,3.94,0,0,0-.19,1.41v3.49Zm17.79,0v-2.22h-4v-1.05l4.25-6H172v6h1.26v1.05H172v2.22Zm0-3.27v-4.2l-2.92,4.2Zm3.74,1.12,1.09-.1a1.88,1.88,0,0,0,.54,1.12,1.43,1.43,0,0,0,1,.35,1.73,1.73,0,0,0,.92-.24,2,2,0,0,0,.65-.64,3.92,3.92,0,0,0,.43-1.09,6,6,0,0,0,.17-1.4,2.3,2.3,0,0,0,0-.23,2.6,2.6,0,0,1-.94.89,2.48,2.48,0,0,1-1.28.34,2.62,2.62,0,0,1-2-.84,3.08,3.08,0,0,1-.8-2.21,3.14,3.14,0,0,1,.84-2.28,2.81,2.81,0,0,1,2.09-.86,2.94,2.94,0,0,1,1.66.49,3,3,0,0,1,1.14,1.39,6.91,6.91,0,0,1,.39,2.62,8.42,8.42,0,0,1-.38,2.84A3.34,3.34,0,0,1,179,157a3,3,0,0,1-1.79.55,2.44,2.44,0,0,1-2.61-2.31Zm4.67-4.11a2.25,2.25,0,0,0-.52-1.56,1.65,1.65,0,0,0-1.26-.57,1.73,1.73,0,0,0-1.33.62,2.32,2.32,0,0,0-.56,1.61,2,2,0,0,0,.53,1.44,1.78,1.78,0,0,0,1.33.56,1.69,1.69,0,0,0,1.3-.56A2.18,2.18,0,0,0,179.23,151.08Zm4.72,6.26,3.57-9.3h1.33l3.81,9.3h-1.4l-1.09-2.81h-3.89l-1,2.81Zm2.68-3.82h3.16l-1-2.57c-.3-.79-.52-1.43-.66-1.93a13,13,0,0,1-.5,1.77Zm6.11,3.82,2.46-3.5-2.28-3.24h1.43l1,1.58c.2.3.35.56.47.76.19-.28.36-.53.52-.74l1.13-1.6h1.37l-2.33,3.18,2.5,3.56h-1.4l-1.38-2.09-.37-.57-1.77,2.66Zm7.26-8V148h1.15v1.31Zm0,8V150.6h1.15v6.74Zm7.3,0v-1a2.44,2.44,0,0,1-2.14,1.15,2.76,2.76,0,0,1-1.11-.23,1.89,1.89,0,0,1-.77-.58,2.29,2.29,0,0,1-.35-.84,5.56,5.56,0,0,1-.07-1.07V150.6H204v3.74a7.4,7.4,0,0,0,.07,1.21,1.18,1.18,0,0,0,.46.7,1.35,1.35,0,0,0,.86.26,1.93,1.93,0,0,0,1-.26,1.53,1.53,0,0,0,.64-.72,3.72,3.72,0,0,0,.18-1.32V150.6h1.15v6.74Zm2.82,0V150.6h1v1a2.35,2.35,0,0,1,2-1.1,2.2,2.2,0,0,1,1.23.31,1.74,1.74,0,0,1,.68.87,2.4,2.4,0,0,1,2.08-1.18,2,2,0,0,1,1.54.56,2.37,2.37,0,0,1,.54,1.71v4.62h-1.14V153.1a3,3,0,0,0-.11-1,1,1,0,0,0-.4-.49,1.29,1.29,0,0,0-.69-.18,1.63,1.63,0,0,0-1.18.47,2.11,2.11,0,0,0-.47,1.52v3.91h-1.14V153a1.92,1.92,0,0,0-.28-1.14,1.06,1.06,0,0,0-.91-.38,1.64,1.64,0,0,0-.89.25,1.41,1.41,0,0,0-.6.75,4.22,4.22,0,0,0-.18,1.41v3.49Zm20.69-9.3H232v5.37a6.39,6.39,0,0,1-.32,2.23,2.75,2.75,0,0,1-1.14,1.35,4.14,4.14,0,0,1-2.18.51,4.5,4.5,0,0,1-2.14-.45,2.53,2.53,0,0,1-1.18-1.3,6.17,6.17,0,0,1-.36-2.34V148H226v5.37a5.26,5.26,0,0,0,.23,1.79,1.74,1.74,0,0,0,.77.88,2.68,2.68,0,0,0,1.34.31,2.56,2.56,0,0,0,1.94-.61,3.52,3.52,0,0,0,.58-2.37Zm2.86,6.31,1.16-.1a2.65,2.65,0,0,0,.39,1.15,2,2,0,0,0,.93.72,3.81,3.81,0,0,0,2.68.07,1.7,1.7,0,0,0,.8-.58,1.36,1.36,0,0,0,.26-.79,1.23,1.23,0,0,0-.25-.77,1.89,1.89,0,0,0-.84-.55,17.13,17.13,0,0,0-1.66-.45,8.84,8.84,0,0,1-1.79-.58,2.46,2.46,0,0,1-1-.87,2.17,2.17,0,0,1-.32-1.16,2.32,2.32,0,0,1,.4-1.31,2.41,2.41,0,0,1,1.16-.93,4.53,4.53,0,0,1,1.71-.32,4.74,4.74,0,0,1,1.83.33,2.63,2.63,0,0,1,1.21,1,2.75,2.75,0,0,1,.46,1.47l-1.18.09a1.87,1.87,0,0,0-.65-1.33,2.48,2.48,0,0,0-1.62-.46,2.66,2.66,0,0,0-1.63.41,1.25,1.25,0,0,0-.51,1,1,1,0,0,0,.37.83,5,5,0,0,0,1.85.66,12.62,12.62,0,0,1,2.06.59,2.87,2.87,0,0,1,1.2.95,2.34,2.34,0,0,1,.39,1.33,2.5,2.5,0,0,1-.43,1.4,2.88,2.88,0,0,1-1.22,1,4.3,4.3,0,0,1-1.79.36,5.3,5.3,0,0,1-2.12-.37,3,3,0,0,1-1.34-1.1A3.22,3.22,0,0,1,233.67,154.35Zm9,3V148h3.49a4.3,4.3,0,0,1,1.71.28,2.2,2.2,0,0,1,1,.87,2.24,2.24,0,0,1,.37,1.23,2.06,2.06,0,0,1-.33,1.12,2.26,2.26,0,0,1-1,.85,2.43,2.43,0,0,1,1.29.85,2.19,2.19,0,0,1,.46,1.41,2.76,2.76,0,0,1-.28,1.21,2.34,2.34,0,0,1-.68.87,3,3,0,0,1-1,.46,6.43,6.43,0,0,1-1.5.15Zm1.23-5.39h2a4.6,4.6,0,0,0,1.18-.11,1.34,1.34,0,0,0,.71-.46,1.42,1.42,0,0,0,.23-.82,1.47,1.47,0,0,0-.22-.81,1.08,1.08,0,0,0-.63-.48,5.22,5.22,0,0,0-1.42-.13h-1.86Zm0,4.3h2.32a5.11,5.11,0,0,0,.84-.05,2,2,0,0,0,.71-.25,1.4,1.4,0,0,0,.47-.52,1.66,1.66,0,0,0,.18-.78,1.62,1.62,0,0,0-.26-.91,1.51,1.51,0,0,0-.74-.54,4.8,4.8,0,0,0-1.37-.15h-2.15Zm11.31,1.09V148h1.23v9.3Zm3.26,0V150.6h1v1a2.41,2.41,0,0,1,2.14-1.11,2.73,2.73,0,0,1,1.12.22,1.87,1.87,0,0,1,.77.57,2.09,2.09,0,0,1,.35.85,5.63,5.63,0,0,1,.07,1.11v4.14h-1.14v-4.1a3,3,0,0,0-.14-1,1.1,1.1,0,0,0-.47-.55,1.49,1.49,0,0,0-.8-.21,1.87,1.87,0,0,0-1.26.46,2.31,2.31,0,0,0-.53,1.76v3.68Z"/></g></svg>