<svg xmlns="http://www.w3.org/2000/svg" viewBox="0 0 137 141.79"><defs><style>.cls-1{fill:#60c455;}</style></defs><g id="Layer_1" data-name="Layer 1"><path class="cls-1" d="M123.43,32.41a67.21,67.21,0,0,0-5.86-6.85,10.13,10.13,0,0,0-14.43-.14h0A9.52,9.52,0,0,0,103.25,39c8,7.83,14.19,18.41,14.19,34.07a48.94,48.94,0,0,1-97.88,0c0-16.08,6-26.55,14-34.2a9.57,9.57,0,0,0,.18-13.67h0a9.89,9.89,0,0,0-14,.11,69,69,0,0,0-6,6.91A67.84,67.84,0,0,0,0,72.75c-.28,36.49,28.71,67.21,65.15,69A68.57,68.57,0,0,0,137,73.29,67.83,67.83,0,0,0,123.43,32.41Z"/><path class="cls-1" d="M66.84,77h3.31a9.38,9.38,0,0,0,9.38-9.38V9.38A9.38,9.38,0,0,0,70.16,0H66.84a9.37,9.37,0,0,0-9.37,9.38V44.82l.21.21-.21-.21V67.59A9.37,9.37,0,0,0,66.84,77Z"/></g></svg>