<svg xmlns="http://www.w3.org/2000/svg" xmlns:xlink="http://www.w3.org/1999/xlink" viewBox="0 0 1024 1024"><defs><style>.cls-1{fill:url(#linear-gradient);}.cls-2,.cls-3{fill:#fff;}.cls-3{opacity:0.2;}</style><linearGradient id="linear-gradient" x1="37.76" y1="37.76" x2="986.24" y2="986.24" gradientUnits="userSpaceOnUse"><stop offset="0" stop-color="#0071bc"/><stop offset="1" stop-color="#29abe2"/></linearGradient></defs><g id="background"><rect class="cls-1" width="1024" height="1024" rx="128.93"/></g><g id="Layer_1" data-name="Layer 1"><path class="cls-2" d="M788.29,689.44,732.93,417.72q-3.28-16.86-7.73-31.6a146.51,146.51,0,0,0-15.51-38.89c-25.92-49.8-67.28-72.82-124.08-74h-.2l-2.38,0-1.34,0h-1c-53.75.16-94,19.31-120.78,61.47-26.07-38.3-64.11-56.29-114.14-57.32h-.2c-.79,0-1.59,0-2.38,0l-1.34,0H341c-81.17.24-131.59,43.79-151.24,144.51L134.35,693.54a47.66,47.66,0,0,0,37,56.19,51,51,0,0,0,60.29-39.63L288.25,435c6.56-27.85,26.13-59,53.17-59.11C368.47,376,388,407.11,394.59,435L404,481.51c3.29,20.79,21.62,43.65,46,48.71,31.66,6.58,60-13.23,66.56-44.9l11.46-54.46c6.55-27.86,26.12-59,53.17-59.11,27,.15,46.61,31.25,53.17,59.11L691,706a51,51,0,0,0,60.29,39.62h0A47.66,47.66,0,0,0,788.29,689.44Z"/><path class="cls-3" d="M889.65,689.44,834.29,417.72q-3.28-16.86-7.73-31.6a146.84,146.84,0,0,0-15.51-38.89c-25.92-49.8-67.28-72.82-124.08-74h-.2l-2.38,0-1.34,0h-.95c-53.75.16-94,19.31-120.78,61.47-26.07-38.3-64.12-56.29-114.14-57.32H447c-.79,0-1.59,0-2.38,0l-1.34,0h-.95c-81.18.24-131.59,43.79-151.24,144.51L235.71,693.54a47.66,47.66,0,0,0,37,56.19A51,51,0,0,0,333,710.1L389.61,435c6.56-27.85,26.13-59,53.17-59.11C469.83,376,489.4,407.11,496,435l9.45,46.55c3.29,20.79,21.62,43.65,46,48.71,31.66,6.58,60-13.23,66.56-44.9l11.46-54.46c6.55-27.86,26.12-59,53.17-59.11,27,.15,46.61,31.25,53.17,59.11L792.35,706a51,51,0,0,0,60.29,39.62h0A47.66,47.66,0,0,0,889.65,689.44Z"/></g></svg>